<?xml version="1.0" encoding="UTF-8"?>
<svg width="537" height="306" fill="none" stroke-linecap="square" stroke-miterlimit="10" version="1.1" viewBox="0 0 537 306" xmlns="http://www.w3.org/2000/svg" xmlns:cc="http://creativecommons.org/ns#" xmlns:dc="http://purl.org/dc/elements/1.1/" xmlns:rdf="http://www.w3.org/1999/02/22-rdf-syntax-ns#">
 <metadata>
  <rdf:RDF>
   <cc:Work rdf:about="">
    <dc:format>image/svg+xml</dc:format>
    <dc:type rdf:resource="http://purl.org/dc/dcmitype/StillImage"/>
    <dc:title/>
   </cc:Work>
  </rdf:RDF>
 </metadata>
 <defs>
  <clipPath id="id_0-36">
   <path d="m45.55 26.05h535.9v305.4h-535.9z"/>
  </clipPath>
 </defs>
 <clipPath id="id_0">
  <path d="m51.15 71.25h705.7v335.6h-705.7z"/>
 </clipPath>
 <g fill-opacity="0">
  <path transform="translate(-118.14 -86.178)" d="m763.07 147.15c0 1.6568-1.3432 3-3 3-1.6569 0-3-1.3432-3-3 0-1.6569 1.3431-3 3-3 1.6568 0 3 1.3431 3 3z" clip-path="url(#id_0)"/>
  <path transform="translate(-118.14 -86.178)" d="m765.37 146.78c0 1.6569-1.3431 3-3 3-1.6569 0-3-1.3431-3-3 0-1.6568 1.3431-3 3-3 1.6569 0 3 1.3432 3 3z" clip-path="url(#id_0)"/>
  <path transform="translate(-118.14 -86.178)" d="m767.67 146.45c0 1.6568-1.3432 3-3 3-1.6569 0-3-1.3432-3-3 0-1.6569 1.3431-3 3-3 1.6568 0 3 1.3431 3 3z" clip-path="url(#id_0)"/>
  <path transform="translate(-118.14 -86.178)" d="m769.97 146.17c0 1.6569-1.3432 3-3 3-1.6569 0-3-1.3431-3-3s1.3431-3 3-3c1.6568 0 3 1.3431 3 3z" clip-path="url(#id_0)"/>
  <path transform="translate(-118.14 -86.178)" d="m772.28 145.94c0 1.6569-1.3432 3-3 3-1.6569 0-3-1.3431-3-3s1.3431-3 3-3c1.6568 0 3 1.3431 3 3z" clip-path="url(#id_0)"/>
  <path transform="translate(-118.14 -86.178)" d="m774.58 145.77c0 1.6568-1.3431 3-3 3-1.6568 0-3-1.3432-3-3 0-1.6569 1.3432-3 3-3 1.6569 0 3 1.3431 3 3z" clip-path="url(#id_0)"/>
  <path transform="translate(-118.14 -86.178)" d="m776.88 145.62c0 1.6569-1.3431 3-3 3-1.6568 0-3-1.3431-3-3s1.3432-3 3-3c1.6569 0 3 1.3431 3 3z" clip-path="url(#id_0)"/>
  <path transform="translate(-118.14 -86.178)" d="m779.18 145.49c0 1.6568-1.3431 3-3 3-1.6568 0-3-1.3432-3-3 0-1.6569 1.3432-3 3-3 1.6569 0 3 1.3431 3 3z" clip-path="url(#id_0)"/>
  <path transform="translate(-118.14 -86.178)" d="m781.48 145.38c0 1.6568-1.3431 3-3 3-1.6568 0-3-1.3432-3-3 0-1.6569 1.3432-3 3-3 1.6569 0 3 1.3431 3 3z" clip-path="url(#id_0)"/>
  <path transform="translate(-118.14 -86.178)" d="m783.78 145.28c0 1.6569-1.3432 3-3 3-1.6568 0-3-1.3431-3-3 0-1.6568 1.3432-3 3-3 1.6568 0 3 1.3432 3 3z" clip-path="url(#id_0)"/>
  <path transform="translate(-118.14 -86.178)" d="m786.09 145.21c0 1.6569-1.3431 3-3 3-1.6568 0-3-1.3431-3-3 0-1.6568 1.3432-3 3-3 1.6569 0 3 1.3432 3 3z" clip-path="url(#id_0)"/>
  <path transform="translate(-118.14 -86.178)" d="m788.39 145.18c0 1.6569-1.3431 3-3 3-1.6568 0-3-1.3431-3-3 0-1.6568 1.3432-3 3-3 1.6569 0 3 1.3432 3 3z" clip-path="url(#id_0)"/>
  <path transform="translate(-118.14 -86.178)" d="m790.69 145.18c0 1.6568-1.3431 3-3 3-1.6568 0-3-1.3432-3-3s1.3432-3 3-3c1.6569 0 3 1.3432 3 3z" clip-path="url(#id_0)"/>
  <path transform="translate(-118.14 -86.178)" d="m792.99 145.24c0 1.6569-1.3432 3-3 3-1.6568 0-3-1.3431-3-3s1.3432-3 3-3c1.6568 0 3 1.3431 3 3z" clip-path="url(#id_0)"/>
  <path transform="translate(-118.14 -86.178)" d="m795.29 145.33c0 1.6568-1.3432 3-3 3-1.6569 0-3-1.3432-3-3 0-1.6569 1.3431-3 3-3 1.6568 0 3 1.3431 3 3z" clip-path="url(#id_0)"/>
  <path transform="translate(-118.14 -86.178)" d="m797.59 145.46c0 1.6568-1.3432 3-3 3-1.6569 0-3-1.3432-3-3s1.3431-3 3-3c1.6568 0 3 1.3432 3 3z" clip-path="url(#id_0)"/>
  <path transform="translate(-118.14 -86.178)" d="m799.9 145.6c0 1.6569-1.3432 3-3 3-1.6569 0-3-1.3431-3-3 0-1.6568 1.3431-3 3-3 1.6568 0 3 1.3432 3 3z" clip-path="url(#id_0)"/>
  <path transform="translate(-118.14 -86.178)" d="m802.2 145.74c0 1.6569-1.3432 3-3 3-1.6569 0-3-1.3431-3-3 0-1.6568 1.3431-3 3-3 1.6568 0 3 1.3432 3 3z" clip-path="url(#id_0)"/>
  <path transform="translate(-118.14 -86.178)" d="m804.5 145.85c0 1.6568-1.3431 3-3 3-1.6568 0-3-1.3432-3-3 0-1.6569 1.3432-3 3-3 1.6569 0 3 1.3431 3 3z" clip-path="url(#id_0)"/>
  <path transform="translate(-118.14 -86.178)" d="m806.8 145.96c0 1.6569-1.3432 3-3 3-1.6569 0-3-1.3431-3-3 0-1.6568 1.3431-3 3-3 1.6568 0 3 1.3432 3 3z" clip-path="url(#id_0)"/>
  <path transform="translate(-118.14 -86.178)" d="m809.1 146.06c0 1.6568-1.3432 3-3 3-1.6569 0-3-1.3432-3-3 0-1.6569 1.3431-3 3-3 1.6568 0 3 1.3431 3 3z" clip-path="url(#id_0)"/>
  <path transform="translate(-118.14 -86.178)" d="m811.4 146.19c0 1.6568-1.3432 3-3 3-1.6569 0-3-1.3432-3-3 0-1.6569 1.3431-3 3-3 1.6568 0 3 1.3431 3 3z" clip-path="url(#id_0)"/>
  <path transform="translate(-118.14 -86.178)" d="m813.71 146.35c0 1.6568-1.3432 3-3 3-1.6569 0-3-1.3432-3-3 0-1.6569 1.3431-3 3-3 1.6568 0 3 1.3431 3 3z" clip-path="url(#id_0)"/>
  <path transform="translate(-118.14 -86.178)" d="m816.01 146.54c0 1.6569-1.3431 3-3 3-1.6568 0-3-1.3431-3-3 0-1.6569 1.3432-3 3-3 1.6569 0 3 1.3431 3 3z" clip-path="url(#id_0)"/>
  <path transform="translate(-118.14 -86.178)" d="m818.31 146.77c0 1.6568-1.3431 3-3 3-1.6568 0-3-1.3432-3-3 0-1.6569 1.3432-3 3-3 1.6569 0 3 1.3431 3 3z" clip-path="url(#id_0)"/>
  <path transform="translate(-118.14 -86.178)" d="m820.61 147.01c0 1.6568-1.3431 3-3 3-1.6568 0-3-1.3432-3-3 0-1.6569 1.3432-3 3-3 1.6569 0 3 1.3431 3 3z" clip-path="url(#id_0)"/>
  <path transform="translate(-118.14 -86.178)" d="m822.91 147.25c0 1.6568-1.3431 3-3 3-1.6568 0-3-1.3432-3-3 0-1.6569 1.3432-3 3-3 1.6569 0 3 1.3431 3 3z" clip-path="url(#id_0)"/>
  <path transform="translate(-118.14 -86.178)" d="m825.21 147.49c0 1.6568-1.3432 3-3 3s-3-1.3432-3-3c0-1.6569 1.3432-3 3-3s3 1.3431 3 3z" clip-path="url(#id_0)"/>
  <path transform="translate(-118.14 -86.178)" d="m827.52 147.73c0 1.6568-1.3431 3-3 3-1.6568 0-3-1.3432-3-3s1.3432-3 3-3c1.6569 0 3 1.3432 3 3z" clip-path="url(#id_0)"/>
  <path transform="translate(-118.14 -86.178)" d="m829.82 147.97c0 1.6568-1.3431 3-3 3-1.6568 0-3-1.3432-3-3 0-1.6569 1.3432-3 3-3 1.6569 0 3 1.3431 3 3z" clip-path="url(#id_0)"/>
  <path transform="translate(-118.14 -86.178)" d="m832.12 148.21c0 1.6568-1.3431 3-3 3-1.6568 0-3-1.3432-3-3 0-1.6569 1.3432-3 3-3 1.6569 0 3 1.3431 3 3z" clip-path="url(#id_0)"/>
  <path transform="translate(-118.14 -86.178)" d="m834.42 148.44c0 1.6568-1.3432 3-3 3-1.6568 0-3-1.3432-3-3 0-1.6569 1.3432-3 3-3 1.6568 0 3 1.3431 3 3z" clip-path="url(#id_0)"/>
  <path transform="translate(-118.14 -86.178)" d="m836.72 148.68c0 1.6569-1.3432 3-3 3-1.6569 0-3-1.3431-3-3 0-1.6568 1.3431-3 3-3 1.6568 0 3 1.3432 3 3z" clip-path="url(#id_0)"/>
  <path transform="translate(-118.14 -86.178)" d="m839.02 148.92c0 1.6568-1.3432 3-3 3-1.6569 0-3-1.3432-3-3 0-1.6569 1.3431-3 3-3 1.6568 0 3 1.3431 3 3z" clip-path="url(#id_0)"/>
  <path transform="translate(-118.14 -86.178)" d="m841.33 149.15c0 1.6569-1.3432 3-3 3-1.6569 0-3-1.3431-3-3 0-1.6568 1.3431-3 3-3 1.6568 0 3 1.3432 3 3z" clip-path="url(#id_0)"/>
  <path transform="translate(-118.14 -86.178)" d="m843.63 149.39c0 1.6568-1.3432 3-3 3-1.6569 0-3-1.3432-3-3 0-1.6569 1.3431-3 3-3 1.6568 0 3 1.3431 3 3z" clip-path="url(#id_0)"/>
  <path transform="translate(-118.14 -86.178)" d="m845.93 149.64c0 1.6569-1.3432 3-3 3-1.6569 0-3-1.3431-3-3 0-1.6568 1.3431-3 3-3 1.6568 0 3 1.3432 3 3z" clip-path="url(#id_0)"/>
  <path transform="translate(-118.14 -86.178)" d="m848.23 149.9c0 1.6569-1.3432 3-3 3-1.6569 0-3-1.3431-3-3 0-1.6568 1.3431-3 3-3 1.6568 0 3 1.3432 3 3z" clip-path="url(#id_0)"/>
  <path transform="translate(-118.14 -86.178)" d="m850.53 150.19c0 1.6569-1.3432 3-3 3-1.6569 0-3-1.3431-3-3s1.3431-3 3-3c1.6568 0 3 1.3431 3 3z" clip-path="url(#id_0)"/>
  <path transform="translate(-118.14 -86.178)" d="m852.83 150.51c0 1.6568-1.3432 3-3 3-1.6569 0-3-1.3432-3-3 0-1.6569 1.3431-3 3-3 1.6568 0 3 1.3431 3 3z" clip-path="url(#id_0)"/>
  <path transform="translate(-118.14 -86.178)" d="m855.14 150.88c0 1.6568-1.3431 3-3 3-1.6568 0-3-1.3432-3-3 0-1.6569 1.3432-3 3-3 1.6569 0 3 1.3431 3 3z" clip-path="url(#id_0)"/>
  <path transform="translate(-118.14 -86.178)" d="m857.44 151.3c0 1.6568-1.3431 3-3 3-1.6568 0-3-1.3432-3-3 0-1.6569 1.3432-3 3-3 1.6569 0 3 1.3431 3 3z" clip-path="url(#id_0)"/>
  <path transform="translate(-118.14 -86.178)" d="m859.74 151.78c0 1.6569-1.3431 3-3 3-1.6568 0-3-1.3431-3-3s1.3432-3 3-3c1.6569 0 3 1.3431 3 3z" clip-path="url(#id_0)"/>
  <path transform="translate(-118.14 -86.178)" d="m862.04 152.3c0 1.6568-1.3431 3-3 3-1.6568 0-3-1.3432-3-3 0-1.6569 1.3432-3 3-3 1.6569 0 3 1.3431 3 3z" clip-path="url(#id_0)"/>
  <path transform="translate(-118.14 -86.178)" d="m864.34 152.87c0 1.6568-1.3432 3-3 3-1.6568 0-3-1.3432-3-3 0-1.6569 1.3432-3 3-3 1.6568 0 3 1.3431 3 3z" clip-path="url(#id_0)"/>
  <path transform="translate(-118.14 -86.178)" d="m866.64 153.45c0 1.6568-1.3431 3-3 3-1.6568 0-3-1.3432-3-3 0-1.6569 1.3432-3 3-3 1.6569 0 3 1.3431 3 3z" clip-path="url(#id_0)"/>
  <path transform="translate(-118.14 -86.178)" d="m868.95 154.02c0 1.6569-1.3431 3-3 3-1.6568 0-3-1.3431-3-3 0-1.6568 1.3432-3 3-3 1.6569 0 3 1.3432 3 3z" clip-path="url(#id_0)"/>
  <path transform="translate(-118.14 -86.178)" d="m871.25 154.55c0 1.6569-1.3431 3-3 3-1.6568 0-3-1.3431-3-3 0-1.6568 1.3432-3 3-3 1.6569 0 3 1.3432 3 3z" clip-path="url(#id_0)"/>
  <path transform="translate(-118.14 -86.178)" d="m873.55 155.02c0 1.6568-1.3431 3-3 3-1.6568 0-3-1.3432-3-3 0-1.6569 1.3432-3 3-3 1.6569 0 3 1.3431 3 3z" clip-path="url(#id_0)"/>
  <path transform="translate(-118.14 -86.178)" d="m875.85 155.43c0 1.6569-1.3432 3-3 3-1.6569 0-3-1.3431-3-3 0-1.6568 1.3431-3 3-3 1.6568 0 3 1.3432 3 3z" clip-path="url(#id_0)"/>
  <path transform="translate(-118.14 -86.178)" d="m878.15 155.81c0 1.6568-1.3432 3-3 3-1.6569 0-3-1.3432-3-3 0-1.6569 1.3431-3 3-3 1.6568 0 3 1.3431 3 3z" clip-path="url(#id_0)"/>
  <path transform="translate(-118.14 -86.178)" d="m880.45 156.18c0 1.6568-1.3432 3-3 3-1.6569 0-3-1.3432-3-3 0-1.6569 1.3431-3 3-3 1.6568 0 3 1.3431 3 3z" clip-path="url(#id_0)"/>
  <path transform="translate(-118.14 -86.178)" d="m882.76 156.58c0 1.6568-1.3432 3-3 3-1.6569 0-3-1.3432-3-3 0-1.6569 1.3431-3 3-3 1.6568 0 3 1.3431 3 3z" clip-path="url(#id_0)"/>
  <path transform="translate(-118.14 -86.178)" d="m885.06 157.01c0 1.6569-1.3431 3-3 3-1.6568 0-3-1.3431-3-3s1.3432-3 3-3c1.6569 0 3 1.3431 3 3z" clip-path="url(#id_0)"/>
  <path transform="translate(-118.14 -86.178)" d="m887.36 157.47c0 1.6569-1.3432 3-3 3-1.6569 0-3-1.3431-3-3s1.3431-3 3-3c1.6568 0 3 1.3431 3 3z" clip-path="url(#id_0)"/>
  <path transform="translate(-118.14 -86.178)" d="m889.66 157.95c0 1.6569-1.3432 3-3 3-1.6569 0-3-1.3431-3-3 0-1.6568 1.3431-3 3-3 1.6568 0 3 1.3432 3 3z" clip-path="url(#id_0)"/>
  <path transform="translate(-118.14 -86.178)" d="m891.96 158.44c0 1.6569-1.3432 3-3 3-1.6569 0-3-1.3431-3-3 0-1.6568 1.3431-3 3-3 1.6568 0 3 1.3432 3 3z" clip-path="url(#id_0)"/>
  <path transform="translate(-118.14 -86.178)" d="m894.26 158.95c0 1.6569-1.3432 3-3 3-1.6569 0-3-1.3431-3-3s1.3431-3 3-3c1.6568 0 3 1.3431 3 3z" clip-path="url(#id_0)"/>
  <path transform="translate(-118.14 -86.178)" d="m896.57 159.45c0 1.6568-1.3431 3-3 3-1.6568 0-3-1.3432-3-3 0-1.6569 1.3432-3 3-3 1.6569 0 3 1.3431 3 3z" clip-path="url(#id_0)"/>
  <path transform="translate(-118.14 -86.178)" d="m898.87 159.96c0 1.6569-1.3431 3-3 3-1.6568 0-3-1.3431-3-3 0-1.6568 1.3432-3 3-3 1.6569 0 3 1.3432 3 3z" clip-path="url(#id_0)"/>
  <path transform="translate(-118.14 -86.178)" d="m901.17 160.47c0 1.6568-1.3431 3-3 3-1.6568 0-3-1.3432-3-3 0-1.6569 1.3432-3 3-3 1.6569 0 3 1.3431 3 3z" clip-path="url(#id_0)"/>
  <path transform="translate(-118.14 -86.178)" d="m903.47 160.97c0 1.6569-1.3431 3-3 3-1.6568 0-3-1.3431-3-3 0-1.6568 1.3432-3 3-3 1.6569 0 3 1.3432 3 3z" clip-path="url(#id_0)"/>
  <path transform="translate(-118.14 -86.178)" d="m905.77 161.46c0 1.6568-1.3431 3-3 3-1.6568 0-3-1.3432-3-3 0-1.6569 1.3432-3 3-3 1.6569 0 3 1.3431 3 3z" clip-path="url(#id_0)"/>
  <path transform="translate(-118.14 -86.178)" d="m908.07 161.93c0 1.6568-1.3431 3-3 3-1.6568 0-3-1.3432-3-3 0-1.6569 1.3432-3 3-3 1.6569 0 3 1.3431 3 3z" clip-path="url(#id_0)"/>
  <path transform="translate(-118.14 -86.178)" d="m910.38 162.39c0 1.6568-1.3431 3-3 3-1.6568 0-3-1.3432-3-3 0-1.6569 1.3432-3 3-3 1.6569 0 3 1.3431 3 3z" clip-path="url(#id_0)"/>
  <path transform="translate(-118.14 -86.178)" d="m912.68 162.84c0 1.6569-1.3431 3-3 3-1.6568 0-3-1.3431-3-3 0-1.6568 1.3432-3 3-3 1.6569 0 3 1.3432 3 3z" clip-path="url(#id_0)"/>
  <path transform="translate(-118.14 -86.178)" d="m914.98 163.3c0 1.6569-1.3432 3-3 3-1.6568 0-3-1.3431-3-3 0-1.6568 1.3432-3 3-3 1.6568 0 3 1.3432 3 3z" clip-path="url(#id_0)"/>
  <path transform="translate(-118.14 -86.178)" d="m917.28 163.76c0 1.6569-1.3432 3-3 3-1.6569 0-3-1.3431-3-3 0-1.6568 1.3431-3 3-3 1.6568 0 3 1.3432 3 3z" clip-path="url(#id_0)"/>
  <path transform="translate(-118.14 -86.178)" d="m919.58 164.24c0 1.6568-1.3432 3-3 3-1.6569 0-3-1.3432-3-3 0-1.6569 1.3431-3 3-3 1.6568 0 3 1.3431 3 3z" clip-path="url(#id_0)"/>
  <path transform="translate(-118.14 -86.178)" d="m921.88 164.72c0 1.6569-1.3432 3-3 3-1.6569 0-3-1.3431-3-3 0-1.6568 1.3431-3 3-3 1.6568 0 3 1.3432 3 3z" clip-path="url(#id_0)"/>
  <path transform="translate(-118.14 -86.178)" d="m924.19 165.21c0 1.6569-1.3432 3-3 3-1.6569 0-3-1.3431-3-3 0-1.6568 1.3431-3 3-3 1.6568 0 3 1.3432 3 3z" clip-path="url(#id_0)"/>
  <path transform="translate(-118.14 -86.178)" d="m926.49 165.69c0 1.6568-1.3432 3-3 3-1.6569 0-3-1.3432-3-3 0-1.6569 1.3431-3 3-3 1.6568 0 3 1.3431 3 3z" clip-path="url(#id_0)"/>
  <path transform="translate(-118.14 -86.178)" d="m928.79 166.17c0 1.6569-1.3432 3-3 3-1.6569 0-3-1.3431-3-3 0-1.6568 1.3431-3 3-3 1.6568 0 3 1.3432 3 3z" clip-path="url(#id_0)"/>
  <path transform="translate(-118.14 -86.178)" d="m931.09 166.62c0 1.6569-1.3432 3-3 3-1.6569 0-3-1.3431-3-3 0-1.6568 1.3431-3 3-3 1.6568 0 3 1.3432 3 3z" clip-path="url(#id_0)"/>
  <path transform="translate(-118.14 -86.178)" d="m933.39 167.06c0 1.6569-1.3432 3-3 3-1.6569 0-3-1.3431-3-3 0-1.6568 1.3431-3 3-3 1.6568 0 3 1.3432 3 3z" clip-path="url(#id_0)"/>
  <path transform="translate(-118.14 -86.178)" d="m935.69 167.48c0 1.6568-1.3431 3-3 3-1.6568 0-3-1.3432-3-3 0-1.6569 1.3432-3 3-3 1.6569 0 3 1.3431 3 3z" clip-path="url(#id_0)"/>
  <path transform="translate(-118.14 -86.178)" d="m938 167.91c0 1.6569-1.3431 3-3 3-1.6568 0-3-1.3431-3-3 0-1.6568 1.3432-3 3-3 1.6569 0 3 1.3432 3 3z" clip-path="url(#id_0)"/>
  <path transform="translate(-118.14 -86.178)" d="m940.3 168.35c0 1.6569-1.3431 3-3 3-1.6568 0-3-1.3431-3-3 0-1.6568 1.3432-3 3-3 1.6569 0 3 1.3432 3 3z" clip-path="url(#id_0)"/>
  <path transform="translate(-118.14 -86.178)" d="m942.6 168.81c0 1.6568-1.3431 3-3 3-1.6568 0-3-1.3432-3-3 0-1.6569 1.3432-3 3-3 1.6569 0 3 1.3431 3 3z" clip-path="url(#id_0)"/>
  <path transform="translate(-118.14 -86.178)" d="m944.9 169.3c0 1.6569-1.3432 3-3 3-1.6568 0-3-1.3431-3-3 0-1.6568 1.3432-3 3-3 1.6568 0 3 1.3432 3 3z" clip-path="url(#id_0)"/>
  <path transform="translate(-118.14 -86.178)" d="m947.2 169.82c0 1.6568-1.3431 3-3 3-1.6568 0-3-1.3432-3-3 0-1.6569 1.3432-3 3-3 1.6569 0 3 1.3431 3 3z" clip-path="url(#id_0)"/>
  <path transform="translate(-118.14 -86.178)" d="m949.5 170.35c0 1.6569-1.3431 3-3 3-1.6568 0-3-1.3431-3-3s1.3432-3 3-3c1.6569 0 3 1.3431 3 3z" clip-path="url(#id_0)"/>
  <path transform="translate(-118.14 -86.178)" d="m951.81 170.87c0 1.6568-1.3431 3-3 3-1.6568 0-3-1.3432-3-3 0-1.6569 1.3432-3 3-3 1.6569 0 3 1.3431 3 3z" clip-path="url(#id_0)"/>
  <path transform="translate(-118.14 -86.178)" d="m954.11 171.39c0 1.6569-1.3431 3-3 3-1.6568 0-3-1.3431-3-3 0-1.6568 1.3432-3 3-3 1.6569 0 3 1.3432 3 3z" clip-path="url(#id_0)"/>
  <path transform="translate(-118.14 -86.178)" d="m956.41 171.88c0 1.6569-1.3432 3-3 3-1.6568 0-3-1.3431-3-3 0-1.6568 1.3432-3 3-3 1.6568 0 3 1.3432 3 3z" clip-path="url(#id_0)"/>
  <path transform="translate(-118.14 -86.178)" d="m958.71 172.35c0 1.6568-1.3432 3-3 3-1.6569 0-3-1.3432-3-3 0-1.6569 1.3431-3 3-3 1.6568 0 3 1.3431 3 3z" clip-path="url(#id_0)"/>
  <path transform="translate(-118.14 -86.178)" d="m961.01 172.79c0 1.6569-1.3432 3-3 3-1.6569 0-3-1.3431-3-3s1.3431-3 3-3c1.6568 0 3 1.3431 3 3z" clip-path="url(#id_0)"/>
  <path transform="translate(-118.14 -86.178)" d="m963.31 173.2c0 1.6568-1.3432 3-3 3-1.6569 0-3-1.3432-3-3 0-1.6569 1.3431-3 3-3 1.6568 0 3 1.3431 3 3z" clip-path="url(#id_0)"/>
  <path transform="translate(-118.14 -86.178)" d="m965.62 173.59c0 1.6569-1.3432 3-3 3-1.6569 0-3-1.3431-3-3 0-1.6568 1.3431-3 3-3 1.6568 0 3 1.3432 3 3z" clip-path="url(#id_0)"/>
  <path transform="translate(-118.14 -86.178)" d="m967.92 173.97c0 1.6569-1.3432 3-3 3-1.6569 0-3-1.3431-3-3 0-1.6568 1.3431-3 3-3 1.6568 0 3 1.3432 3 3z" clip-path="url(#id_0)"/>
  <path transform="translate(-118.14 -86.178)" d="m970.22 174.35c0 1.6568-1.3432 3-3 3-1.6569 0-3-1.3432-3-3 0-1.6569 1.3431-3 3-3 1.6568 0 3 1.3431 3 3z" clip-path="url(#id_0)"/>
  <path transform="translate(-118.14 -86.178)" d="m972.52 174.74c0 1.6569-1.3432 3-3 3-1.6569 0-3-1.3431-3-3s1.3431-3 3-3c1.6568 0 3 1.3431 3 3z" clip-path="url(#id_0)"/>
  <path transform="translate(-118.14 -86.178)" d="m974.82 175.16c0 1.6569-1.3432 3-3 3-1.6569 0-3-1.3431-3-3s1.3431-3 3-3c1.6568 0 3 1.3431 3 3z" clip-path="url(#id_0)"/>
  <path transform="translate(-118.14 -86.178)" d="m977.12 175.6c0 1.6569-1.3431 3-3 3-1.6568 0-3-1.3431-3-3 0-1.6568 1.3432-3 3-3 1.6569 0 3 1.3432 3 3z" clip-path="url(#id_0)"/>
  <path transform="translate(-118.14 -86.178)" d="m979.43 176.06c0 1.6569-1.3431 3-3 3-1.6568 0-3-1.3431-3-3 0-1.6568 1.3432-3 3-3 1.6569 0 3 1.3432 3 3z" clip-path="url(#id_0)"/>
  <path transform="translate(-118.14 -86.178)" d="m981.73 176.54c0 1.6569-1.3431 3-3 3-1.6568 0-3-1.3431-3-3 0-1.6568 1.3432-3 3-3 1.6569 0 3 1.3432 3 3z" clip-path="url(#id_0)"/>
  <path transform="translate(-118.14 -86.178)" d="m984.03 177.02c0 1.6569-1.3431 3-3 3-1.6568 0-3-1.3431-3-3 0-1.6568 1.3432-3 3-3 1.6569 0 3 1.3432 3 3z" clip-path="url(#id_0)"/>
  <path transform="translate(-118.14 -86.178)" d="m986.33 177.5c0 1.6569-1.3431 3-3 3-1.6568 0-3-1.3431-3-3 0-1.6568 1.3432-3 3-3 1.6569 0 3 1.3432 3 3z" clip-path="url(#id_0)"/>
  <path transform="translate(-118.14 -86.178)" d="m988.63 177.96c0 1.6568-1.3431 3-3 3-1.6568 0-3-1.3432-3-3 0-1.6569 1.3432-3 3-3 1.6569 0 3 1.3431 3 3z" clip-path="url(#id_0)"/>
  <path transform="translate(-118.14 -86.178)" d="m990.93 178.43c0 1.6568-1.3431 3-3 3-1.6568 0-3-1.3432-3-3 0-1.6569 1.3432-3 3-3 1.6569 0 3 1.3431 3 3z" clip-path="url(#id_0)"/>
  <path transform="translate(-118.14 -86.178)" d="m993.24 178.88c0 1.6569-1.3431 3-3 3-1.6568 0-3-1.3431-3-3 0-1.6568 1.3432-3 3-3 1.6569 0 3 1.3432 3 3z" clip-path="url(#id_0)"/>
  <path transform="translate(-118.14 -86.178)" d="m995.54 179.34c0 1.6569-1.3432 3-3 3s-3-1.3431-3-3 1.3432-3 3-3 3 1.3431 3 3z" clip-path="url(#id_0)"/>
  <path transform="translate(-118.14 -86.178)" d="m997.84 179.8c0 1.6569-1.3432 3-3 3-1.6569 0-3-1.3431-3-3 0-1.6568 1.3431-3 3-3 1.6568 0 3 1.3432 3 3z" clip-path="url(#id_0)"/>
  <path transform="translate(-118.14 -86.178)" d="m1000.1 180.26c0 1.6568-1.3432 3-3 3-1.6569 0-3-1.3432-3-3 0-1.6569 1.3431-3 3-3 1.6568 0 3 1.3431 3 3z" clip-path="url(#id_0)"/>
 </g>
 <path transform="translate(-45 -26)" d="m45.55 175.54 7.9449-4.0878 7.9449-8.8692 7.9449-11.014 7.9449-8.1862 7.9449-3.7065 7.9449-0.81342 7.9449 0.66269 7.9449 1.6875 7.9449 2.2124 7.9449 2.252 7.9449 2.1702 7.9449 2.3133 7.9448 2.3815 7.9449 2.3274 7.9449 2.3283 7.9449 2.1865 7.9449 1.9193 7.9448 1.7766 7.9449 1.4903 7.9449 1.0335 7.9449 0.78606 7.9449 0.60625 7.9449 0.45454 7.9449 0.42926 7.9449 0.46442 7.9449 0.53476 7.9448 0.56991 7.9449 0.56589 7.9448 0.52957 7.9448 0.54096 7.9449 0.56619 7.9449 0.6053 7.9449 0.65086 7.9448 0.68865 7.9449 0.70443 7.9449 0.69294 7.9448 0.66088 7.9449 0.6227 7.9449 0.59116 7.9448 0.57068 7.9449 0.55665 7.9449 0.54021 7.9449 0.5146 7.9449 0.47952 7.9449 0.44078 7.9448 0.40598 7.9449 0.37947 7.9448 0.35945 7.9449 0.33943 7.9448 0.31194 7.9449 0.27299 7.9449 0.22359 7.9449 0.16815 7.9448 0.1115 7.9449 0.0559 7.9449 7.3e-4 7.9449-0.056 7.9448-0.11554 7.9449-0.17546 7.9449-0.22965 7.9449-0.27108 7.9448-0.29638 7.9449-0.30856 7.9449-0.31605 7.9448-0.32775 7.9449-0.34845 7.9448-0.37676 7.9449-0.40725 7.9449-0.43413 7.9448-0.4546 7.9449-0.46962 7.9449-0.48174 7.9448-0.49244 7.9449-0.50014 7.9449-0.50003 7.9448-0.48671 7.9449-0.45827 7.9449-0.41914 7.9448-0.37885 7.9449-0.34726 7.9449-0.32908 7.9448-0.32155 7.9449-0.31708 7.9448-0.30815 7.9449-0.29186 7.9449-0.27038 7.9448-0.24872 7.9449-0.2306 7.9449-0.21627 7.9448-0.20254 7.9449-0.185 7.9449-0.16075 7.9448-0.12931 7.9449-0.0927 7.9449-0.0539 7.9448-0.0168 7.9449 0.0138 7.9449 0.0328 7.9448 0.0365 7.9449 0.0264 7.9448 0.0101 7.9449-3e-3 7.9449-5e-3 7.9448-4e-4 7.9449 4e-4 7.9449-0.0167 7.9448-0.0588 7.9449-0.12121 7.9449-0.18889 7.9448-0.24531 7.9449-0.2813 7.9449-0.29822 7.9448-0.30453 7.9449-0.30921 7.9449-0.31616 7.9448-0.32321 7.9449-0.32449 7.9448-0.31466 7.9449-0.29225 7.9448-0.2596 7.9448-0.22044 7.9449-0.17737 7.9448-0.13067 7.9449-0.079 7.9449-0.021 7.9448 0.0425 7.9449 0.10697 7.9449 0.16565 7.9448 0.21207 7.9449 0.2435 7.9448 0.26138 7.9449 0.26973 7.9449 0.27254 7.9448 0.2726 7.9449 0.27167 7.9449 0.27057 15.89 0.53968 7.9449 0.27091 7.9448 0.27347 7.9449 0.27836 7.9448 0.287 7.9449 0.30101 7.9449 0.32148 7.9448 0.34744 7.9449 0.37541 7.9449 0.40042 7.9448 0.41841 7.9449 0.42818 15.89 0.86243 15.89 0.85971 7.9449 0.43077 7.9449 0.43352 7.9448 0.43843 7.9449 0.44652 7.9449 0.45893 7.9448 0.47565 7.9448 0.49368 7.945 0.50595 7.9448 0.50325 7.9448 0.4791 7.945 0.43478 7.9448 0.38018 7.9448 0.32888 7.945 0.29085 7.9448 0.26802 7.9448 0.25534 7.945 0.24532 7.9448 0.23212 7.9448 0.21287 7.9449 0.18703 7.9449 0.15524 7.9448 0.11936 7.9449 0.0827 7.9449 0.0491 7.9448 0.0214 7.9448-5.5e-4 7.945-0.0196 7.9448-0.0397 7.9448-0.0636 7.945-0.0915 7.9448-0.12196 7.9448-0.15247 7.945-0.1807 7.9448-0.20476 7.9448-0.22292 7.945-0.23439 7.9448-0.24039 7.9448-0.24469 7.945-0.25258 7.9448-0.26817 7.9448-0.29245 7.945-0.32281 7.9448-0.35492 7.9448-0.38498 7.9449-0.41112 7.9449-0.43269 7.9448-0.44979 7.945-0.46298 7.9448-0.47345 7.9448-0.48303 7.9449-0.49379 7.9449-0.50739 7.9448-0.52539 7.9448-0.54904 7.945-0.57873 7.9448-0.6131 7.9448-0.64829 7.945-0.67917 7.9448-0.70092 7.9448-0.71019 7.945-0.70476 7.9448-0.68373 7.9448-0.64867 7.9449-0.6046 7.9449-0.55903 7.9448-0.51838 7.9449-0.48504 7.9449-0.45646 7.9448-0.42728 7.9449-0.39292 7.9449-0.35239 7.9448-0.30883 7.9449-0.26766 7.9448-0.23318 7.9449-0.20714 7.9449-0.18898 7.9449-0.17732 7.9448-0.17073 7.9449-0.16764 7.9448-0.16641 7.9449-0.16528 7.9449-0.16252 7.9448-0.15633 7.9449-0.14493 7.9448-0.12793 7.9449-0.10737 7.9449-0.0884 7.9448-0.077 7.9449-0.0766 7.9449-0.0854 7.9448-0.096 7.9449-0.0999 7.9449-0.0909 7.9448-0.0681 7.9449-0.0348 7.9448 4e-3 7.9449 0.0415 7.9449 0.0727 7.9448 0.0916 7.945 0.0946 7.9448 0.0828 7.9448 0.0617 7.9448 0.039 7.945 0.0208 7.9447 9e-3 7.9451 3e-3 7.9448 9.3e-4 15.89 2.5e-4h23.835l15.89-4.4e-4 7.9448-1e-3 7.9449-5e-3 7.9447-0.0117 7.9452-0.025 7.9448-0.0456 7.9448-0.0719 7.9448-0.0997 7.9449-0.12418 7.9448-0.14209 7.945-0.15308 7.9449-0.15898 7.9448-0.16266 7.9448-0.16679 7.9448-0.17402 7.9449-0.18647 7.945-0.20485 7.9449-0.22691 7.9448-0.24707 7.9448-0.2586 7.9448-0.25752 7.9449-0.24581 7.9448-0.23085 7.945-0.22133 7.9449-0.22242 7.9448-0.23278 7.9448-0.24614 15.89-0.51014 7.945-0.2462 7.9449-0.23144 7.9448-0.21462 7.9448-0.19863 7.9448-0.18516 7.9449-0.17526 15.89-0.34005 7.9448-0.17735 7.9448-0.1924 7.9448-0.2138 7.9448-0.23607 7.945-0.25036 7.945-0.24834 7.9448-0.2272 7.9448-0.19203 7.9448-0.15335 7.9448-0.12121 7.9451-0.10004 7.9448-0.0877 7.9449-0.0783 7.9448-0.0661 7.9448-0.0479 7.9448-0.0236 7.9448 6e-3 7.9451 0.0367 7.9448 0.0656 7.9449 0.0869 7.9448 0.0957 7.9448 0.0917 7.9448 0.0802 7.9451 0.0706 7.9448 0.0714 7.9449 0.0855 7.9448 0.10902 7.9448 0.13393 7.9448 0.15312 7.9451 0.16368 7.9448 0.16684 7.9448 0.16591 7.9449 0.16382 7.9448 0.16219 23.835 0.48314 7.9448 0.16125 7.9449 0.16217 7.9448 0.16429 7.9448 0.16898 7.945 0.17821 7.945 0.19433 7.9447 0.21872 7.9448 0.25082 7.9449 0.28801 7.9448 0.32631 7.9448 0.36115 7.945 0.38699 7.945 0.39765 7.9447 0.38812 7.9449 0.35902 7.9448 0.31873 7.9448 0.28103 7.9451 0.25863 7.9447 0.25654 7.945 0.27104 7.9448 0.29287 7.9448 0.31341 7.9448 0.32831 7.9451 0.33742 7.9448 0.34275 7.9447 0.34607 7.945 0.34765 7.9448 0.34648 7.9448 0.34149 7.9451 0.3327 7.9448 0.32224 7.9448 0.31341 7.9448 0.30934 7.9449 0.31113 7.9448 0.31728 7.945 0.32481 7.9449 0.3307 7.9448 0.33289 7.9448 0.33011 7.9448 0.32228 7.9449 0.31056 7.945 0.29808 7.9449 0.28963 7.9448 0.28969 7.9448 0.29968 7.9448 0.31709 7.9449 0.33629 7.9448 0.35168 15.89 0.71918 7.9448 0.35156 7.9448 0.33722 7.9448 0.31843 7.9449 0.29812 7.945 0.27974 7.9448 0.2662 7.945 0.25937 7.9447 0.26023 7.9448 0.2687 7.9449 0.28348 7.945 0.30107 7.9449 0.31676 7.9447 0.32645 7.945 0.32859 7.9447 0.32503 7.9449 0.31928 7.945 0.31458 7.9448 0.31254 7.9449 0.31283 7.9447 0.31409 7.945 0.31511" clip-path="url(#id_0-36)" fill="none" stroke="#4285f4" stroke-linecap="butt" stroke-miterlimit="10" stroke-width="8"/>
</svg>
